<?xml version="1.0" encoding="UTF-8"?>
<!--
  SVG Sprite for Frank Penney Injury Law
  Usage: <svg><use href="images/icons.svg#icon-name"></use></svg>
-->
<svg xmlns="http://www.w3.org/2000/svg" style="display: none;">

  <!-- Phone Icon - Used in header, footer, contact pages -->
  <symbol id="icon-phone" viewBox="0 0 24 24">
    <path d="M6.62 10.79c1.44 2.83 3.76 5.14 6.59 6.59l2.2-2.2c.27-.27.67-.36 1.02-.24 1.12.37 2.33.57 3.57.57.55 0 1 .45 1 1V20c0 .55-.45 1-1 1-9.39 0-17-7.61-17-17 0-.55.45-1 1-1h3.5c.55 0 1 .45 1 1 0 1.25.2 2.45.57 3.57.11.35.03.74-.25 1.02l-2.2 2.2z"/>
  </symbol>

  <!-- Checkmark Circle Icon - Used extensively in lists -->
  <symbol id="icon-check-circle" viewBox="0 0 24 24">
    <path d="M12 2C6.48 2 2 6.48 2 12s4.48 10 10 10 10-4.48 10-10S17.52 2 12 2zm-2 15l-5-5 1.41-1.41L10 14.17l7.59-7.59L19 8l-9 9z"/>
  </symbol>

  <!-- Simple Checkmark Icon -->
  <symbol id="icon-check" viewBox="0 0 24 24">
    <path d="M9 16.17L4.83 12l-1.42 1.41L9 19 21 7l-1.41-1.41z"/>
  </symbol>

  <!-- Email Icon -->
  <symbol id="icon-email" viewBox="0 0 24 24">
    <path d="M20 4H4c-1.1 0-1.99.9-1.99 2L2 18c0 1.1.9 2 2 2h16c1.1 0 2-.9 2-2V6c0-1.1-.9-2-2-2zm0 4l-8 5-8-5V6l8 5 8-5v2z"/>
  </symbol>

  <!-- Location/Map Pin Icon -->
  <symbol id="icon-location" viewBox="0 0 24 24">
    <path d="M12 2C8.13 2 5 5.13 5 9c0 5.25 7 13 7 13s7-7.75 7-13c0-3.87-3.13-7-7-7zm0 9.5c-1.38 0-2.5-1.12-2.5-2.5s1.12-2.5 2.5-2.5 2.5 1.12 2.5 2.5-1.12 2.5-2.5 2.5z"/>
  </symbol>

  <!-- Dropdown Arrow / Chevron Down -->
  <symbol id="icon-chevron-down" viewBox="0 0 10 6">
    <path d="M1 1l4 4 4-4"/>
  </symbol>

  <!-- Chevron Up (for back to top) -->
  <symbol id="icon-chevron-up" viewBox="0 0 24 24">
    <polyline points="18 15 12 9 6 15" fill="none" stroke="currentColor" stroke-width="2" stroke-linecap="round" stroke-linejoin="round"/>
  </symbol>

  <!-- Clock Icon -->
  <symbol id="icon-clock" viewBox="0 0 24 24">
    <path d="M11.99 2C6.47 2 2 6.48 2 12s4.47 10 9.99 10C17.52 22 22 17.52 22 12S17.52 2 11.99 2zM12 20c-4.42 0-8-3.58-8-8s3.58-8 8-8 8 3.58 8 8-3.58 8-8 8zm.5-13H11v6l5.25 3.15.75-1.23-4.5-2.67z"/>
  </symbol>

  <!-- Dollar/Money Icon -->
  <symbol id="icon-dollar" viewBox="0 0 24 24">
    <path d="M11.8 10.9c-2.27-.59-3-1.2-3-2.15 0-1.09 1.01-1.85 2.7-1.85 1.78 0 2.44.85 2.5 2.1h2.21c-.07-1.72-1.12-3.3-3.21-3.81V3h-3v2.16c-1.94.42-3.5 1.68-3.5 3.61 0 2.31 1.91 3.46 4.7 4.13 2.5.6 3 1.48 3 2.41 0 .69-.49 1.79-2.7 1.79-2.06 0-2.87-.92-2.98-2.1h-2.2c.12 2.19 1.76 3.42 3.68 3.83V21h3v-2.15c1.95-.37 3.5-1.5 3.5-3.55 0-2.84-2.43-3.81-4.7-4.4z"/>
  </symbol>

  <!-- Chat/Message Icon -->
  <symbol id="icon-chat" viewBox="0 0 24 24">
    <path d="M20 2H4c-1.1 0-2 .9-2 2v18l4-4h14c1.1 0 2-.9 2-2V4c0-1.1-.9-2-2-2zm0 14H6l-2 2V4h16v12z"/>
  </symbol>

  <!-- Language/Globe Icon -->
  <symbol id="icon-language" viewBox="0 0 24 24">
    <path d="M12.87 15.07l-2.54-2.51.03-.03c1.74-1.94 2.98-4.17 3.71-6.53H17V4h-7V2H8v2H1v1.99h11.17C11.5 7.92 10.44 9.75 9 11.35 8.07 10.32 7.3 9.19 6.69 8h-2c.73 1.63 1.73 3.17 2.98 4.56l-5.09 5.02L4 19l5-5 3.11 3.11.76-2.04zM18.5 10h-2L12 22h2l1.12-3h4.75L21 22h2l-4.5-12zm-2.62 7l1.62-4.33L19.12 17h-3.24z"/>
  </symbol>

  <!-- Close/X Icon -->
  <symbol id="icon-close" viewBox="0 0 24 24">
    <path d="M19 6.41L17.59 5 12 10.59 6.41 5 5 6.41 10.59 12 5 17.59 6.41 19 12 13.41 17.59 19 19 17.59 13.41 12z"/>
  </symbol>

  <!-- Menu/Hamburger Icon -->
  <symbol id="icon-menu" viewBox="0 0 24 24">
    <path d="M3 18h18v-2H3v2zm0-5h18v-2H3v2zm0-7v2h18V6H3z"/>
  </symbol>

  <!-- Star Icon (for ratings/awards) -->
  <symbol id="icon-star" viewBox="0 0 24 24">
    <path d="M12 17.27L18.18 21l-1.64-7.03L22 9.24l-7.19-.61L12 2 9.19 8.63 2 9.24l5.46 4.73L5.82 21z"/>
  </symbol>

  <!-- Shield/Award Icon -->
  <symbol id="icon-shield" viewBox="0 0 24 24">
    <path d="M12 1L3 5v6c0 5.55 3.84 10.74 9 12 5.16-1.26 9-6.45 9-12V5l-9-4zm-2 16l-4-4 1.41-1.41L10 14.17l6.59-6.59L18 9l-8 8z"/>
  </symbol>

</svg>
